# xmcd
#
# Track frame offsets:
#	150
#	22376
#	43290
#	71163
#	91606
#	109599
#	132654
#	153473
#	173119
#	197749
#	218161
#	238949
#
# Disc length: 3486 seconds
#
# Revision: 9
# Processed by: cddbd v1.5.2PL0 Copyright (c) Steve Scherf et al.
# Submitted via: EZCDAudioConverter 3.1.7.1
#
DISCID=b30d9c0c
DTITLE=Γιώργος Αλκαίος - Εν Ψυχρώ
DYEAR=1997
DGENRE=Greek
TTITLE0=Τα Δικά Μου Τραγούδια
TTITLE1=Καλύτερα Μόνος Μου
TTITLE2=Είσαι Αλλού
TTITLE3=Οι Αγάπες
TTITLE4=Σ' Άλλο Στρώμα
TTITLE5=Ραγισμένη Ματιά
TTITLE6=Σημάδι
TTITLE7=Περασμένα Ναι, Ξεχασμένα Όχι
TTITLE8=Με Πιάνουν Τα Κλάματα
TTITLE9=Μάτια Θλιμμένα
TTITLE10=Τσιγάρο
TTITLE11=5 Μήνες
EXTD=
EXTT0=
EXTT1=
EXTT2=
EXTT3=
EXTT4=
EXTT5=
EXTT6=
EXTT7=
EXTT8=
EXTT9=
EXTT10=
EXTT11=
PLAYORDER=
